<svg xmlns="http://www.w3.org/2000/svg" viewBox="0 0 900 720" role="img" aria-labelledby="title desc">
  <title id="title">Student using SchoolOS on a laptop</title>
  <desc id="desc">A student sitting at a desk using a laptop that shows SchoolOS dashboard cards for CBT, results, attendance, and messages.</desc>
  <defs>
    <linearGradient id="bg" x1="0" y1="0" x2="1" y2="1">
      <stop offset="0" stop-color="#eff8ff"/>
      <stop offset="1" stop-color="#dff4f2"/>
    </linearGradient>
    <linearGradient id="screen" x1="0" y1="0" x2="1" y2="1">
      <stop offset="0" stop-color="#0f4c81"/>
      <stop offset="1" stop-color="#1f7a8c"/>
    </linearGradient>
    <filter id="shadow" x="-20%" y="-20%" width="140%" height="140%">
      <feDropShadow dx="0" dy="20" stdDeviation="22" flood-color="#061a2f" flood-opacity=".18"/>
    </filter>
  </defs>
  <rect width="900" height="720" rx="42" fill="url(#bg)"/>
  <circle cx="760" cy="100" r="74" fill="#ffffff" opacity=".62"/>
  <circle cx="106" cy="590" r="110" fill="#ffffff" opacity=".48"/>
  <path d="M92 516c64-35 144-50 240-45 123 6 225 48 331 39 73-6 122-35 166-74v214H92Z" fill="#cfe9f2" opacity=".72"/>
  <g filter="url(#shadow)">
    <rect x="290" y="232" width="500" height="316" rx="26" fill="#102a43"/>
    <rect x="318" y="262" width="444" height="248" rx="18" fill="url(#screen)"/>
    <rect x="254" y="532" width="572" height="42" rx="14" fill="#dbe6f4"/>
    <rect x="372" y="544" width="220" height="10" rx="5" fill="#afc2d7"/>
  </g>
  <g>
    <rect x="348" y="295" width="154" height="68" rx="14" fill="#ffffff" opacity=".95"/>
    <rect x="528" y="295" width="194" height="68" rx="14" fill="#ffffff" opacity=".95"/>
    <rect x="348" y="384" width="374" height="92" rx="14" fill="#ffffff" opacity=".95"/>
    <circle cx="382" cy="329" r="16" fill="#1f7a8c"/>
    <circle cx="562" cy="329" r="16" fill="#0f4c81"/>
    <path d="M410 316h64M410 337h42M590 316h104M590 337h72" stroke="#8aa0b8" stroke-width="10" stroke-linecap="round"/>
    <path d="M382 431h286" stroke="#d5e0ec" stroke-width="12" stroke-linecap="round"/>
    <path d="M382 455h206" stroke="#d5e0ec" stroke-width="12" stroke-linecap="round"/>
    <rect x="382" y="404" width="84" height="14" rx="7" fill="#1f7a8c"/>
    <rect x="486" y="404" width="112" height="14" rx="7" fill="#8fc5cf"/>
    <rect x="618" y="404" width="62" height="14" rx="7" fill="#f2c14e"/>
  </g>
  <g filter="url(#shadow)">
    <path d="M192 308c-22 18-31 54-16 81 12 22 35 34 60 30l66-10c31-5 54-31 55-62 1-35-26-64-61-65l-51-1c-20 0-38 9-53 27Z" fill="#1f7a8c"/>
    <circle cx="251" cy="248" r="62" fill="#6b3f2a"/>
    <path d="M198 235c8-54 52-86 103-72 35 10 58 38 61 74-48 7-102-4-164-2Z" fill="#102a43"/>
    <path d="M199 254c-10 1-18 10-17 21 1 10 9 18 20 18h7v-40Z" fill="#6b3f2a"/>
    <path d="M298 254h7c10 0 19 8 20 18 1 11-7 20-18 21h-9Z" fill="#6b3f2a"/>
    <path d="M226 285c15 16 42 16 58 0" stroke="#f8d8c5" stroke-width="8" stroke-linecap="round"/>
    <path d="M154 436c8-70 47-110 103-110h17c57 0 98 40 107 110l13 104H141Z" fill="#ffffff"/>
    <path d="M174 436c6-45 31-72 71-72h42c40 0 65 27 71 72l8 65H166Z" fill="#e8f1fb"/>
    <path d="M198 402c26 26 108 26 134 0" stroke="#1f7a8c" stroke-width="14" stroke-linecap="round"/>
    <path d="M360 450c47 10 78 35 97 74" stroke="#6b3f2a" stroke-width="32" stroke-linecap="round"/>
    <path d="M156 450c-34 17-50 44-48 80" stroke="#6b3f2a" stroke-width="32" stroke-linecap="round"/>
    <rect x="96" y="520" width="368" height="48" rx="18" fill="#d6e2ef"/>
  </g>
  <g>
    <rect x="70" y="106" width="190" height="58" rx="18" fill="#ffffff" opacity=".94"/>
    <circle cx="103" cy="135" r="15" fill="#1f7a8c"/>
    <path d="M128 123h94M128 146h62" stroke="#9aadc1" stroke-width="9" stroke-linecap="round"/>
    <rect x="610" y="126" width="188" height="58" rx="18" fill="#ffffff" opacity=".94"/>
    <circle cx="643" cy="155" r="15" fill="#f2c14e"/>
    <path d="M668 143h86M668 166h54" stroke="#9aadc1" stroke-width="9" stroke-linecap="round"/>
  </g>
</svg>
